<svg width="24" height="25" viewBox="0 0 24 25" fill="none" xmlns="http://www.w3.org/2000/svg">
<path d="M7.22308 19.6107V13.6412M16.7769 19.6107V13.6412M2.26923 12.5968V10.8321C2.26923 5.40196 6.70506 1 12.1769 1C17.6488 1 22.0846 5.40196 22.0846 10.8321V12.8382M3.68462 21.1908C3.68462 22.7423 5.07625 24 6.79291 24H12.1769M5.45385 11.8855C5.64927 11.8855 5.80769 12.1035 5.80769 12.3724V20.5284C5.80769 20.7973 5.64927 21.0153 5.45385 21.0153C1.04787 21.0153 0.5 18.4068 0.5 16.4504C0.5 14.494 1.04052 11.8855 5.45385 11.8855ZM18.5462 11.8855C18.3507 11.8855 18.1923 12.1035 18.1923 12.3724L18.1923 20.5284C18.1923 20.7973 18.3507 21.0153 18.5462 21.0153C22.9521 21.0153 23.5 18.4068 23.5 16.4504C23.5 14.494 22.9595 11.8855 18.5462 11.8855Z" stroke="white" stroke-linecap="round" stroke-linejoin="round"/>
</svg>
