<svg width="42" height="24" viewBox="0 0 42 24" fill="none" xmlns="http://www.w3.org/2000/svg">
<path d="M1 10.6102H17.0307C15.6072 14.7449 16.0089 22.5535 21.9214 22.5535C22.5456 22.5497 23.1612 22.4086 23.7247 22.1401C24.2882 21.8716 24.7858 21.4824 25.1819 21.0001C26.6054 19.2812 26.1979 16.8181 25.4595 14.8925C25.0756 13.912 23.4454 10.6102 25.6722 10.6102H41M1 15.2469H13.1264M28.218 15.2469H40.3384M3.94742 10.6102C3.94742 10.6102 3.73475 9.3048 6.05016 7.8872M9.98992 10.6102C9.98992 10.6102 9.78323 9.3048 12.0986 7.8872M28.9445 10.6102C28.9445 10.6102 28.7318 9.3048 31.0472 7.8872M34.987 10.6102C34.987 10.6102 34.7802 9.3048 37.0957 7.8872M27.8931 1C25.6486 1.78559 23.5044 4.21328 22.1459 6.06797C19.9132 9.104 17.6036 13.9888 19.2811 17.7691C19.4047 18.0751 19.5887 18.3532 19.8221 18.5866C20.0555 18.82 20.3336 19.004 20.6397 19.1276C22.7366 19.8778 23.5517 17.137 22.9374 15.6368C21.9451 13.2209 21.5316 10.9114 22.583 8.43064C23.8175 5.52456 25.7726 3.28588 27.8931 1Z" stroke="white" stroke-linecap="round" stroke-linejoin="round"/>
</svg>
