<svg width="7" height="11" viewBox="0 0 7 11" fill="none" xmlns="http://www.w3.org/2000/svg">
<path d="M3.87227 8.87664L6.41872 7.44031M2.47701 3.42463L5.23657 8.1071M3.62531 2.59085C3.66717 2.66299 3.63998 2.75658 3.56457 2.7999L1.27767 4.11357C1.20227 4.15689 1.1072 4.13352 1.06534 4.06138C0.121571 2.43498 0.735635 1.81259 1.2842 1.49748C1.83276 1.18236 2.67996 0.961736 3.62531 2.59085ZM3.7011 2.72147L6.37976 7.3376C6.41238 7.39381 6.42822 7.45821 6.42472 7.52302C6.38056 8.34112 6.26771 9.05798 6.19285 9.46512C6.15731 9.65843 5.96161 9.77188 5.77514 9.70708C5.38143 9.57026 4.69704 9.31183 3.95883 8.93956C3.90059 8.91019 3.85239 8.86431 3.81974 8.80804L1.14114 4.192L3.7011 2.72147Z" stroke="#252525" stroke-width="0.7" stroke-linecap="round"/>
</svg>
