<svg width="23" height="25" viewBox="0 0 23 25" fill="none" xmlns="http://www.w3.org/2000/svg">
<path d="M9.26209 11.9692C9.8305 13.8564 13.4229 19.3292 17.7882 20.4615M16.083 22.5846C12.6726 21.5231 9.22464 18.9122 7.21583 14.4461C4.82849 9.13851 10.2852 7.01534 12.3315 11.6154C13.1185 13.3846 14.3778 15.3307 18.1293 17.2769C21.8808 19.223 24.2681 13.3847 20.8577 11.6154C15.8919 9.03939 14.7188 1.63693 7.55688 3.12311C-2.50364 5.21078 -0.287164 19.0462 4.82852 22.9385M19.8345 14.4461C13.6957 12.323 13.8443 3.49419 7.21583 6.3076C-0.287187 9.49221 5.16959 22.2308 11.9905 24M13.0136 1C16.7651 1.35385 17.7883 5.24615 21.8808 8.78462" stroke="#E9F6FE" stroke-linecap="round" stroke-linejoin="round"/>
</svg>
