<svg width="42" height="23" viewBox="0 0 42 23" fill="none" xmlns="http://www.w3.org/2000/svg">
<path d="M19.3066 21.6236C20.0667 19.9617 19.7208 18.0272 18.84 16.4911C17.823 14.7191 16.0668 13.4766 14.4415 12.297C13.6072 11.6703 12.9358 10.852 12.4842 9.91125C12.0325 8.97053 11.8137 7.93499 11.8464 6.89196C12.0036 3.98757 14.6406 2.66642 17.199 2.2208C19.6001 1.76992 22.0642 1.76992 24.4653 2.2208C26.6987 2.67166 29.4196 3.45805 30.1116 5.89061C30.6359 7.75697 29.9648 9.76487 28.801 11.2485C27.333 13.1096 24.8218 13.9065 23.4063 15.8358C22.2424 17.4086 21.7759 19.8673 22.9188 21.6026M19.4901 12.7951C19.0026 11.841 17.8177 11.3377 16.9579 10.6981C16.4137 10.3278 15.9686 9.8298 15.6615 9.2476C15.3544 8.6654 15.1948 8.01678 15.1965 7.35855C15.2961 5.62326 16.9842 4.83683 18.6199 4.56946C20.1565 4.29949 21.7282 4.29949 23.2648 4.56946C24.696 4.84207 26.4104 5.3087 26.877 6.77139C27.3436 8.23407 26.468 9.81208 25.257 10.6928C24.4024 11.3167 23.2123 11.82 22.7248 12.7899M28.2767 3.59437C28.8744 4.00329 29.687 3.81982 30.3738 3.5472C32.6962 2.61402 34.9033 0.695219 37.5666 1.04123C42.6309 1.70704 41.5772 9.58144 37.7449 11.2276C37.1959 11.4634 36.6014 11.5744 36.0043 11.5527C35.867 11.5473 35.6059 11.5112 35.4709 11.4852M13.7233 3.59437C13.1256 4.00329 12.313 3.81982 11.6263 3.5472C9.30378 2.61402 7.09667 0.695219 4.43343 1.04123C-0.630916 1.70704 0.422799 9.58144 4.25513 11.2276C4.80411 11.4634 5.39863 11.5744 5.99571 11.5527C6.13302 11.5473 6.36291 11.5527 6.50472 11.4852M35.4604 11.3455C35.5754 12.294 34.7901 13.1694 33.7065 13.3007C32.6228 13.432 31.6512 12.7696 31.5362 11.821C31.4213 10.8725 32.2065 9.99706 33.2902 9.86573C34.3738 9.73441 35.3455 10.3969 35.4604 11.3455ZM8.67845 9.81891C9.76209 9.95024 10.5473 10.8257 10.4324 11.7742C10.3174 12.7227 9.3458 13.3853 8.26216 13.2539C7.17852 13.1226 6.39324 12.2472 6.5082 11.2986C6.62315 10.3501 7.59481 9.68758 8.67845 9.81891Z" stroke="white" stroke-linecap="round" stroke-linejoin="round"/>
</svg>
