<svg width="20" height="22" viewBox="0 0 20 22" fill="none" xmlns="http://www.w3.org/2000/svg">
<path d="M15.3981 8.08995L15.3981 5.68132C15.3981 2.83291 12.986 0.523811 10.0105 0.523811C7.0351 0.523811 4.62302 2.8329 4.62301 5.68132V8.08995M9.85661 14.2011C10.5367 14.2011 11.088 13.6799 11.088 13.037C11.088 12.3942 10.5367 11.873 9.85661 11.873C9.17651 11.873 8.62517 12.3942 8.62517 13.037C8.62517 13.6799 9.17651 14.2011 9.85661 14.2011ZM9.85661 14.2011V18.1296M2.468 21.4762H17.4847C18.3348 21.4762 19.0239 20.8248 19.0239 20.0212V9.54498C19.0239 8.74139 18.3348 8.08995 17.4847 8.08995H2.468C1.61788 8.08995 0.928711 8.74139 0.928711 9.54497V20.0212C0.928711 20.8248 1.61787 21.4762 2.468 21.4762Z" stroke="white" stroke-linecap="round"/>
</svg>
