<svg width="21" height="19" viewBox="0 0 21 19" fill="none" xmlns="http://www.w3.org/2000/svg">
<path d="M7.32528 9.79483C7.04914 9.79483 6.82528 9.57097 6.82528 9.29483C6.82528 9.01869 7.04914 8.79483 7.32528 8.79483V9.79483ZM20.0237 9.29483L20.3367 8.9049C20.4549 8.9998 20.5237 9.14322 20.5237 9.29483C20.5237 9.44644 20.4549 9.58987 20.3367 9.68477L20.0237 9.29483ZM15.8944 6.62171C15.679 6.44886 15.6446 6.13416 15.8174 5.9188C15.9903 5.70344 16.305 5.66898 16.5203 5.84183L15.8944 6.62171ZM16.5203 12.7478C16.305 12.9207 15.9903 12.8862 15.8174 12.6709C15.6446 12.4555 15.679 12.1408 15.8944 11.968L16.5203 12.7478ZM12.5111 17.5714V17.0714V17.5714ZM13.3792 16.7079L13.8792 16.7079V16.7079H13.3792ZM0.976076 16.7079L1.47608 16.7079V16.7079L0.976076 16.7079ZM1.84419 1.46986V0.969862V1.46986ZM0.976074 2.33336L0.476074 2.33336V2.33336H0.976074ZM12.5111 1.46986V1.96986V1.46986ZM13.3792 2.33336H13.8792H13.3792ZM12.8792 13.0657C12.8792 12.7896 13.103 12.5657 13.3792 12.5657C13.6553 12.5657 13.8792 12.7896 13.8792 13.0657L12.8792 13.0657ZM13.8792 5.84567C13.8792 6.12181 13.6553 6.34567 13.3792 6.34567C13.103 6.34567 12.8792 6.12181 12.8792 5.84567H13.8792ZM7.32528 8.79483H20.0237V9.79483H7.32528V8.79483ZM19.7107 9.68477L15.8944 6.62171L16.5203 5.84183L20.3367 8.9049L19.7107 9.68477ZM20.3367 9.68477L16.5203 12.7478L15.8944 11.968L19.7107 8.9049L20.3367 9.68477ZM12.5111 17.0714C12.7169 17.0714 12.8792 16.9062 12.8792 16.7079H13.8792C13.8792 17.4635 13.2641 18.0714 12.5111 18.0714V17.0714ZM1.8442 17.0714L12.5111 17.0714V18.0714L1.8442 18.0714L1.8442 17.0714ZM1.47608 16.7079C1.47608 16.9062 1.63837 17.0714 1.8442 17.0714L1.8442 18.0714C1.09113 18.0714 0.476076 17.4635 0.476076 16.7079L1.47608 16.7079ZM1.84419 1.96986C1.63837 1.96986 1.47607 2.13512 1.47607 2.33336H0.476074C0.476074 1.57781 1.09112 0.969862 1.84419 0.969862L1.84419 1.96986ZM12.5111 1.96986H1.84419V0.969862H12.5111V1.96986ZM12.8792 2.33336C12.8792 2.13512 12.7169 1.96986 12.5111 1.96986V0.969862C13.2641 0.969862 13.8792 1.57781 13.8792 2.33336H12.8792ZM1.47607 2.33336L1.47608 16.7079L0.476076 16.7079L0.476074 2.33336L1.47607 2.33336ZM12.8792 16.7079L12.8792 13.0657L13.8792 13.0657L13.8792 16.7079L12.8792 16.7079ZM12.8792 5.84567V2.33336H13.8792V5.84567H12.8792Z" fill="white"/>
</svg>
