<svg width="35" height="42" viewBox="0 0 35 42" fill="none" xmlns="http://www.w3.org/2000/svg">
<path d="M28.0959 25.0433C31.3816 25.0433 33.746 28.8507 33.746 33.5073V41M1 41V33.5073C1 28.8507 3.68628 25.0433 6.96643 25.0433H7.35491M24.7103 15.1751C24.4075 16.9015 23.506 18.4661 22.1641 19.5938C20.8222 20.7215 19.1258 21.3402 17.373 21.3413C15.6205 21.3411 13.9243 20.7226 12.5831 19.5946C11.2419 18.4666 10.3418 16.9016 10.0412 15.1751M25.5817 11.8062V9.20309C25.5817 7.02748 24.7175 4.94097 23.1791 3.40259C21.6407 1.8642 19.5541 1 17.3785 1C15.2024 1 13.1153 1.86402 11.5761 3.40225C10.0368 4.94048 9.1713 7.02697 9.16983 9.20309V10.7461C15.1363 8.25958 15.436 5.49006 15.436 5.49006C15.436 5.49006 16.424 8.90339 20.7531 8.44828C20.7531 8.44828 20.7531 12.0947 25.5761 11.7784M9.16983 10.1133C8.2152 10.1133 8.02646 11.2234 8.02646 12.6165C8.02646 14.0095 8.33172 15.1584 9.2808 15.1584H9.83582M25.5761 10.1133C26.5252 10.1133 26.6251 11.2234 26.6251 12.6331C26.6251 14.0429 26.3254 15.1751 25.3763 15.1751H24.8213M24.5161 23.5836C27.9961 23.5836 29.0117 25.7037 29.0117 28.5787V35.0502M10.23 23.6169C7.31616 23.8889 6.43919 25.9091 6.43919 28.5676V31.5592M6.43919 31.5592C5.50441 31.5621 4.60886 31.9351 3.94839 32.5966C3.28792 33.2581 2.91624 34.1543 2.91478 35.0891V39.729H3.59744M6.43919 31.5592C7.37448 31.5621 8.27067 31.9349 8.93202 32.5963C9.59337 33.2577 9.96609 34.1538 9.96902 35.0891V39.729H9.13649M12.4501 23.3671C13.8577 24.4495 15.5835 25.0364 17.3592 25.0364C19.1348 25.0364 20.8607 24.4495 22.2683 23.3671M12.1337 22.7122C12.4887 22.4336 12.7676 22.0697 12.9442 21.6544C13.1209 21.239 13.1895 20.7858 13.1438 20.3368M22.5957 22.7788C22.2095 22.508 21.9029 22.1386 21.7077 21.7091C21.5125 21.2797 21.4358 20.8058 21.4856 20.3368M19.7707 39.9732L22.7345 22.3959L24.3718 22.9176L24.3607 27.0136L23.3616 27.4909L24.8158 30.4769L19.7707 39.9732ZM14.9753 39.9732L12.0115 22.3959L10.3742 22.9176L10.3853 27.0136L11.3844 27.4909L9.93023 30.4769L14.9753 39.9732ZM31.1097 37.1371C31.1097 38.2958 30.1704 39.235 29.0117 39.235C27.853 39.235 26.9137 38.2958 26.9137 37.1371C26.9137 35.9784 27.853 35.0391 29.0117 35.0391C30.1704 35.0391 31.1097 35.9784 31.1097 37.1371Z" stroke="white" stroke-linecap="round" stroke-linejoin="round"/>
</svg>
