<svg width="14" height="17" viewBox="0 0 14 17" fill="none" xmlns="http://www.w3.org/2000/svg">
<path d="M4.97301 2.81806C4.97301 3.0942 5.19687 3.31806 5.47301 3.31806C5.74915 3.31806 5.97301 3.0942 5.97301 2.81806H4.97301ZM7.88567 2.81806C7.88567 3.0942 8.10953 3.31806 8.38567 3.31806C8.66181 3.31806 8.88567 3.0942 8.88567 2.81806H7.88567ZM11.6239 9.9285L11.2357 10.2437L11.2357 10.2437L11.6239 9.9285ZM12.9901 12.4479L13.4845 12.3735L12.9901 12.4479ZM6.99715 2.08747C6.721 2.08747 6.49715 2.31132 6.49715 2.58747C6.49715 2.86361 6.721 3.08747 6.99715 3.08747V2.08747ZM11.4721 6.53845L10.9744 6.58632L11.4721 6.53845ZM2.37609 9.9285L2.76425 10.2437L2.76425 10.2437L2.37609 9.9285ZM1.0099 12.4479L1.50434 12.5222L1.0099 12.4479ZM7.00285 3.08747C7.279 3.08747 7.50285 2.86361 7.50285 2.58747C7.50285 2.31132 7.279 2.08747 7.00285 2.08747V3.08747ZM2.52789 6.53845L2.03019 6.49057L2.52789 6.53845ZM8.75965 13.4844V13.7126H9.75965V13.4844H8.75965ZM5.18262 13.7126V13.4844H4.18262V13.7126H5.18262ZM6.97113 15.5C5.98313 15.5 5.18262 14.6995 5.18262 13.7126H4.18262C4.18262 15.2523 5.4313 16.5 6.97113 16.5V15.5ZM8.75965 13.7126C8.75965 14.6995 7.95913 15.5 6.97113 15.5V16.5C8.51096 16.5 9.75965 15.2523 9.75965 13.7126H8.75965ZM5.97301 2.81806C5.97301 2.32633 6.10975 1.99552 6.27984 1.79628C6.44608 1.60154 6.66991 1.5 6.92934 1.5V0.5C6.38446 0.5 5.88013 0.72431 5.51928 1.14701C5.16228 1.56521 4.97301 2.14343 4.97301 2.81806H5.97301ZM6.92934 1.5C7.18877 1.5 7.4126 1.60154 7.57884 1.79628C7.74893 1.99552 7.88567 2.32633 7.88567 2.81806H8.88567C8.88567 2.14343 8.6964 1.56521 8.3394 1.14701C7.97855 0.72431 7.47421 0.5 6.92934 0.5V1.5ZM11.2357 10.2437C11.3282 10.3575 11.4712 10.4915 11.568 10.5889C11.6811 10.7027 11.7997 10.8302 11.9158 10.9899C12.1432 11.3029 12.3825 11.7696 12.4957 12.5222L13.4845 12.3735C13.3475 11.462 13.0464 10.8448 12.7247 10.402C12.5662 10.1839 12.408 10.0155 12.2772 9.88397C12.1302 9.73607 12.0623 9.67524 12.0121 9.61334L11.2357 10.2437ZM6.99715 3.08747C6.99797 3.08747 6.99881 3.08747 6.99967 3.08747L7.00033 2.08747C6.99929 2.08747 6.99822 2.08747 6.99715 2.08747V3.08747ZM6.99967 3.08747C9.11016 3.08887 10.8081 4.858 10.9744 6.58632L11.9698 6.49057C11.7562 4.26949 9.64544 2.08922 7.00033 2.08747L6.99967 3.08747ZM10.9744 6.58632C11.0655 7.53339 11.0213 8.24363 10.9933 8.79282C10.9797 9.05966 10.9677 9.32002 10.9862 9.54258C11.0047 9.76599 11.0584 10.0253 11.2357 10.2437L12.0121 9.61334C12.0205 9.62377 11.9946 9.60228 11.9827 9.45973C11.9708 9.31633 11.9776 9.12558 11.992 8.84382C12.02 8.29583 12.0687 7.51899 11.9698 6.49057L10.9744 6.58632ZM1.98793 9.61334C1.93767 9.67524 1.86976 9.73607 1.72276 9.88397C1.592 10.0155 1.43381 10.1839 1.27528 10.402C0.953561 10.8448 0.652477 11.462 0.515453 12.3735L1.50434 12.5222C1.61748 11.7696 1.85677 11.3029 2.08425 10.9899C2.20032 10.8302 2.31893 10.7027 2.43201 10.5889C2.52884 10.4915 2.67179 10.3575 2.76425 10.2437L1.98793 9.61334ZM7.00285 2.08747C7.00178 2.08747 7.00071 2.08747 6.99967 2.08747L7.00033 3.08747C7.00119 3.08747 7.00203 3.08747 7.00285 3.08747V2.08747ZM6.99967 2.08747C4.35456 2.08922 2.24385 4.26949 2.03019 6.49057L3.02559 6.58632C3.19185 4.858 4.88984 3.08887 7.00033 3.08747L6.99967 2.08747ZM2.03019 6.49057C1.93125 7.51899 1.98002 8.29583 2.00801 8.84382C2.0224 9.12558 2.02919 9.31633 2.01726 9.45973C2.00541 9.60228 1.97946 9.62377 1.98793 9.61334L2.76425 10.2437C2.94156 10.0253 2.99525 9.76599 3.01383 9.54258C3.03233 9.32002 3.02033 9.05966 3.00671 8.79282C2.97866 8.24363 2.93449 7.53339 3.02559 6.58632L2.03019 6.49057ZM1.978 13.9844H12.022V12.9844H1.978V13.9844ZM0.515453 12.3735C0.376497 13.2979 1.15517 13.9844 1.978 13.9844V12.9844C1.65183 12.9844 1.47257 12.7335 1.50434 12.5222L0.515453 12.3735ZM12.4957 12.5222C12.5274 12.7335 12.3482 12.9844 12.022 12.9844V13.9844C12.8448 13.9844 13.6235 13.2979 13.4845 12.3735L12.4957 12.5222Z" fill="#252525"/>
</svg>
