<svg width="38" height="42" viewBox="0 0 38 42" fill="none" xmlns="http://www.w3.org/2000/svg">
<path d="M32.7575 19.0366C31.7302 21.8916 30.3877 24.6269 29.2532 27.4379C28.478 29.3728 28.4968 31.5408 28.3897 33.6207C28.2826 35.7005 28.1943 38.8518 26.1838 40.0052C24.0472 41.2278 22.3394 38.5304 21.728 36.898C21.2931 35.7509 20.77 33.3623 19.3393 33.0156C17.6755 32.6123 16.9696 35.0639 16.5537 36.1984C15.9234 37.8623 15.2237 39.7089 13.5977 40.6102C12.0661 41.4736 10.4024 40.8245 9.4633 39.4316C8.53947 37.9046 8.16364 36.1084 8.39806 34.3392C8.56192 32.3917 8.56192 31.1249 7.7678 29.2467C6.36234 25.8244 4.43387 22.6543 2.99689 19.2509C0.973773 14.4547 -0.513712 7.47773 3.69638 3.40629C4.58897 2.5117 5.67644 1.83571 6.87366 1.43117C8.07088 1.02663 9.34538 0.904489 10.5976 1.07434C13.2132 1.52182 15.2174 3.44412 17.3918 4.79916C19.0397 5.93701 20.9466 6.6434 22.9381 6.85376M18.0663 4.74876C19.1133 3.3127 20.5601 2.21671 22.226 1.59749C23.7383 1.06905 25.3623 0.944574 26.9375 1.2364C28.5127 1.52822 29.9845 2.22624 31.2071 3.26137C32.9781 4.79289 33.7281 6.05337 34.0306 8.27186M33.602 10.3706L34.497 12.8664L36.9928 13.7551L34.497 14.65L33.602 17.1458L32.7134 14.65L30.2176 13.7551L32.7134 12.8664L33.602 10.3706Z" stroke="white" stroke-linecap="round" stroke-linejoin="round"/>
</svg>
