<svg width="42" height="42" viewBox="0 0 42 42" fill="none" xmlns="http://www.w3.org/2000/svg">
<path d="M21 1V8.35034M21 33.6497V41M41 21H33.6497M8.35034 21H1M15.1489 31.8069V27.1583C15.1489 25.6064 15.7654 24.1182 16.8627 23.0209C17.96 21.9236 19.4482 21.3071 21 21.3071C22.5518 21.3071 24.0401 21.9236 25.1374 23.0209C26.2347 24.1182 26.8511 25.6064 26.8511 27.1583V31.7965M26.8511 10.8282V15.4664C26.8511 17.0183 26.2347 18.5065 25.1374 19.6038C24.0401 20.7011 22.5518 21.3176 21 21.3176C19.4482 21.3176 17.96 20.7011 16.8627 19.6038C15.7654 18.5065 15.1489 17.0183 15.1489 15.4664V10.8282M15.1489 12.4107H26.8511M15.1491 15.5133H26.851M15.1489 27.1374H26.8511M16.0295 24.0713H25.987M16.0102 18.5221H25.9899M15.1489 30.2452H26.8511M37.7413 21.3175C37.7413 30.5635 30.246 38.0588 21 38.0588C11.754 38.0588 4.25872 30.5635 4.25872 21.3175C4.25872 12.0716 11.754 4.57626 21 4.57626C30.246 4.57626 37.7413 12.0716 37.7413 21.3175Z" stroke="white" stroke-linecap="round" stroke-linejoin="round"/>
</svg>
