<svg width="57" height="40" viewBox="0 0 57 40" fill="none" xmlns="http://www.w3.org/2000/svg">
<path d="M38.1269 21.679C38.1282 23.8747 37.6977 26.0492 36.8599 28.0788M38.1269 21.679C38.1316 19.4812 37.7038 17.3038 36.868 15.2711M38.1269 21.679C38.1267 19.4653 37.6877 17.2736 36.8355 15.2305C35.9868 13.1826 34.7421 11.3222 33.1726 9.75653C32.8396 9.43166 32.4987 9.11499 32.1332 8.80637C32.1332 8.80637 35.0975 8.09974 36.2426 0.936523M36.8599 28.0788C35.9458 27.282 35.2133 26.2984 34.7117 25.1944C34.2101 24.0904 33.9513 22.8916 33.9525 21.679C33.9496 20.4642 34.2084 19.2629 34.7115 18.1572C35.2146 17.0514 35.9502 16.067 36.868 15.2711M36.8599 28.0788C36.015 30.1245 34.7728 31.9822 33.2052 33.5446M36.868 15.2711C36.0194 13.2231 34.7746 11.3629 33.2052 9.79717C31.6434 11.356 30.4054 13.2084 29.5622 15.2475C28.7189 17.2866 28.287 19.4724 28.2916 21.679C28.2882 23.883 28.7207 26.066 29.564 28.1023C30.4072 30.1386 31.6446 31.9882 33.2052 33.5446M33.2052 33.5446C31.6489 35.1059 29.7996 36.3444 27.7633 37.189C25.7271 38.0336 23.5441 38.4677 21.3397 38.4663C16.8867 38.4663 12.6158 36.6979 9.46625 33.5499C6.31673 30.4019 4.54629 26.132 4.54414 21.679C4.54414 21.2296 4.56043 20.7911 4.59291 20.3633M32.4661 8.66828L1.42554 21.6303L36.2426 35.5263C35.8478 36.8439 35.2327 38.085 34.4234 39.1972M56.3192 21.6303H53.8827M51.3731 21.6303H46.7601M44.283 21.6303H41.8465M55.3852 38.3932L53.7771 37.1506M50.967 35.0471L45.688 30.9863M43.2516 28.9803L41.6516 27.7377M41.6516 15.531L43.2516 14.2884M45.688 12.3067L50.561 8.66828M53.7771 6.11811L55.3852 4.87551M4.5604 20.3227C4.90317 16.1173 6.81636 12.195 9.91932 9.3358C13.0223 6.47662 17.0878 4.89004 21.3071 4.89174C25.2705 4.88553 29.1073 6.28725 32.1332 8.84694M24.3202 11.9331C24.3202 11.9331 27.1221 9.4967 28.7464 2.82078" stroke="white" stroke-width="1.37234" stroke-linecap="round" stroke-linejoin="round"/>
</svg>
