<svg width="57" height="56" viewBox="0 0 57 56" fill="none" xmlns="http://www.w3.org/2000/svg">
<path d="M51.983 13.5329C49.3049 14.83 42.8008 18.4506 39.8521 18.8892C36.698 19.3651 33.6372 17.816 30.4366 18.6652C29.6162 18.8458 28.8502 19.2182 28.2014 19.7518C27.5526 20.2855 27.0395 20.9652 26.704 21.7353C26.4041 22.5163 26.4029 23.3805 26.7008 24.1622C26.9987 24.944 27.5747 25.5884 28.3183 25.9718C30.9778 27.0729 30.4833 27.4088 30.2406 30.3576C30.1287 31.7199 30.3805 33.2783 31.5096 34.0901C36.3713 37.3841 40.5144 27.2035 42.7073 25.0666C47.1211 20.8208 49.4168 19.6824 56.1915 18.1613M2.041 35.3592C5.47497 34.678 8.85299 33.4929 11.1672 31.6266C13.6307 29.6017 14.5357 26.2984 17.3071 24.4974C17.9901 24.0122 18.7783 23.6958 19.6072 23.5742C20.4361 23.4525 21.282 23.5291 22.0756 23.7975C22.8549 24.0983 23.4959 24.6757 23.8763 25.4194C24.2567 26.163 24.3499 27.0208 24.1378 27.8287C23.2047 30.5442 23.7551 30.4042 26.1066 32.1959C27.1891 33.0264 28.1782 34.2581 27.9729 35.6112C27.413 39.5957 22.1316 38.4106 19.4628 37.8601C16.7168 37.1568 13.85 37.0644 11.0644 37.5895C8.16236 38.28 5.46565 40.0716 2.98348 41.6113M49.454 11.8533C49.0528 9.6417 48.6797 8.30731 48.6797 8.30731C48.6797 8.30731 31.9857 12.5531 25.8363 0.702148C19.6868 12.5531 3.00223 8.30731 3.00223 8.30731C3.00223 8.30731 -0.189271 19.505 2.16226 31.0387M7.11726 42.8897C10.8498 48.0966 16.6821 52.4078 25.8362 54.4234C45.6282 50.0562 50.098 35.0046 50.3593 23.2749M31.1458 22.3792C31.1458 22.3792 30.4832 26.8209 30.2126 30.3576M23.9979 28.2486C23.9979 28.2486 23.4659 29.723 21.9448 34.4354" stroke="white" stroke-width="1.37234" stroke-linecap="round" stroke-linejoin="round"/>
</svg>
