<svg width="24" height="22" viewBox="0 0 24 22" fill="none" xmlns="http://www.w3.org/2000/svg">
<path d="M3.77918 4.88567C2.50897 4.88666 1.02616 4.39189 1.02393 3.15208C1.02181 1.97426 2.39698 1.47726 3.77304 1.47619L16.3045 1.47619C17.5809 1.47619 18.0596 2.1626 18.0596 2.87297V4.88567M21.9756 9.84492H17.4012C15.4998 9.84492 13.9584 11.302 13.9584 13.0994C13.9584 14.8968 15.4998 16.3539 17.4012 16.3539H21.9756M17.2434 13.2544H17.4012M1.02393 3.33591V18.9885C1.02393 19.8364 1.72085 20.5238 2.58055 20.5238H21.3721C22.2318 20.5238 22.9287 19.8364 22.9287 18.9885V6.42095C22.9287 5.57304 22.2318 4.88567 21.3721 4.88567H3.75689" stroke="white" stroke-linecap="round"/>
</svg>
