<svg width="23" height="24" viewBox="0 0 23 24" fill="none" xmlns="http://www.w3.org/2000/svg">
<path d="M22.5 12C22.5 18.0751 17.5751 23 11.5 23M22.5 12C22.5 5.92487 17.5751 1 11.5 1M22.5 12H0.5M11.5 23C5.42487 23 0.5 18.0751 0.5 12M11.5 23C13.8228 23 15.7059 18.0751 15.7059 12C15.7059 5.92487 13.8228 1 11.5 1M11.5 23C9.17716 23 7.29412 18.0751 7.29412 12C7.29412 5.92487 9.17716 1 11.5 1M0.5 12C0.5 5.92487 5.42487 1 11.5 1M2.44118 5.85294C2.44118 5.85294 6.00277 7.47059 11.5774 7.47059C17.1521 7.47059 20.5588 5.85294 20.5588 5.85294M20.5588 18.1471C20.5588 18.1471 16.9972 16.5294 11.4226 16.5294C5.84791 16.5294 2.44118 18.1471 2.44118 18.1471" stroke="white" stroke-linecap="round"/>
</svg>
